<svg xmlns="http://www.w3.org/2000/svg" xmlns:xlink="http://www.w3.org/1999/xlink" width="1192" height="346"><defs><path id="a" d="M0 .286h1191.579V1H0z"/></defs><g fill="none" fill-rule="evenodd"><path fill="#F27A82" d="M720 109c0 8.837-7.164 16-16 16-8.837 0-16-7.163-16-16s7.163-16 16-16c8.836 0 16 7.163 16 16m297 40c0 15.465-12.535 28-28 28-15.464 0-28-12.535-28-28s12.536-28 28-28c15.465 0 28 12.535 28 28M308 270.5c0 15.188-12.312 27.5-27.5 27.5S253 285.688 253 270.5s12.312-27.5 27.5-27.5 27.5 12.312 27.5 27.5"/><path d="M681 234.158c13.158-2.865 27.797-2.878 40.966-.031m-11.86 14.497a51.39 51.39 0 00-16.106.022m21.569-7.292c-9.24-1.815-19.342-1.806-28.569.03M671.372 288.643c-.202-2.238-2.13-3.357-4.28-3.357-2.15 0-4.077 1.119-4.28 3.357-.105 1.17.148 3.934.707 4.98.49.916 1.626 1.796 2.888 2.096.518.079.853.079 1.372 0 1.261-.3 2.398-1.18 2.887-2.096.56-1.046.811-3.81.706-4.98zm-8.943 54.347l-1.36-19.28-2.28-.245-.69-.702L657 312.457l.48-11.147c.05-.624.902-1.35 1.497-1.546l4.418-1.445c4.557 2.735 2.838 2.735 7.396 0l4.417 1.445c.597.197 1.446.922 1.497 1.546l.48 11.147-1.098 10.306-.693.702-2.277.245-1.361 19.28h-9.327zm4.664-21.923V343v-21.933zm6.05-14.895v17.538-17.538zm-12.074 0v17.538-17.538zm34.575-17.53c-.203-2.237-2.129-3.356-4.278-3.356-2.152 0-4.08 1.119-4.282 3.357-.106 1.17.148 3.934.706 4.98.49.916 1.626 1.796 2.888 2.096.519.079.853.079 1.372 0 1.262-.3 2.4-1.18 2.888-2.096.559-1.046.811-3.81.706-4.98zM686.7 342.99l-1.36-19.28-2.279-.245-.692-.702-1.098-10.306.48-11.147c.051-.624.9-1.35 1.496-1.546l4.418-1.445c4.558 2.735 2.839 2.735 7.396 0l4.418 1.445c.596.197 1.446.922 1.497 1.546l.48 11.147-1.099 10.306-.692.702-2.278.245-1.36 19.28H686.7zm4.665-21.923V343v-21.933zm6.049-14.895v17.538-17.538zm-12.075 0v17.538-17.538zm34.576-17.53c-.203-2.237-2.13-3.356-4.28-3.356-2.15 0-4.077 1.119-4.28 3.357-.105 1.17.147 3.934.706 4.98.488.916 1.626 1.796 2.887 2.096.519.079.854.079 1.374 0 1.261-.3 2.398-1.18 2.887-2.096.558-1.046.81-3.81.706-4.98zm-8.943 54.348l-1.361-19.28-2.278-.245-.692-.702-1.099-10.306.481-11.147c.05-.624.9-1.35 1.496-1.546l4.418-1.445c4.557 2.735 2.838 2.735 7.397 0l4.417 1.445c.597.197 1.446.922 1.496 1.546l.48 11.147-1.098 10.306-.693.702-2.277.245-1.36 19.28h-9.327zm4.664-21.923V343v-21.933zm6.05-14.895v17.538-17.538zm-12.075 0v17.538-17.538zm34.575-17.53c-.202-2.237-2.13-3.356-4.28-3.356-2.15 0-4.077 1.119-4.279 3.357-.105 1.17.148 3.934.706 4.98.489.916 1.625 1.796 2.887 2.096a4 4 0 001.372 0c1.263-.3 2.4-1.18 2.888-2.096.559-1.046.812-3.81.706-4.98zm-8.944 54.348l-1.36-19.28-2.278-.245-.691-.702-1.098-10.306.48-11.147c.05-.624.9-1.35 1.495-1.546l4.418-1.445c4.558 2.735 2.839 2.735 7.396 0l4.418 1.445c.597.197 1.447.922 1.497 1.546l.48 11.147-1.098 10.306-.693.702-2.277.245-1.36 19.28h-9.329zm4.664-21.923V343v-21.933zm6.052-14.895v17.538-17.538zm-12.076 0v17.538-17.538zm-2.145-21.815c-.203-2.24-2.13-3.357-4.28-3.357-2.15 0-4.077 1.117-4.279 3.357-.106 1.169.147 3.935.705 4.98.49.917 1.626 1.795 2.888 2.095a4 4 0 001.371 0c1.263-.3 2.4-1.178 2.889-2.096.559-1.044.81-3.81.706-4.98zm-24.272 0c-.202-2.24-2.13-3.357-4.28-3.357-2.15 0-4.077 1.117-4.28 3.357-.104 1.169.149 3.935.707 4.98.488.917 1.625 1.795 2.887 2.095.518.08.854.08 1.372 0 1.262-.3 2.4-1.178 2.888-2.096.559-1.044.81-3.81.706-4.98zm-24.272 0c-.202-2.24-2.13-3.357-4.28-3.357-2.149 0-4.077 1.117-4.279 3.357-.106 1.169.148 3.935.706 4.98.489.917 1.626 1.795 2.887 2.095.52.08.854.08 1.373 0 1.262-.3 2.398-1.178 2.887-2.096.558-1.044.81-3.81.706-4.98z" stroke="#615F7D"/><g transform="translate(0 344)"><mask id="b" fill="#fff"><use xlink:href="#a"/></mask><path stroke="#615F7D" d="M0 .286h1191.579" mask="url(#b)"/></g><path stroke="#615F7D" d="M533.221 317.623v27.341-27.34zm27.183 14.575L563.278 345l-2.874-12.802zm-13.405 12.146l.453-14.088c.003-.537.293-.835.925-.849h8.855c4.222 0 5.139-3.296 5.072-6.5-.143-4.273-.34-11.922-1.945-16.489-2.15-6.117-8.19-5.563-11.234-3.262-1.974 1.558-3.895 5.75-5.41 7.847a1.35 1.35 0 01-.441.26l-9.82 1.584c-2.445.58-2.154 4.243-.128 4.494l10.541.008c.733-.091 1.291-.31 1.904-.64l6.605-5.4-2.16 11.122m1.861.38c-1.598-.109-4.4.173-8.403.845-2.352.468-3.271 3.442-3.06 4.924l1.463 15.79m4.47-52.845c.191-2.558 2.432-3.94 4.956-4.063 2.524-.122 4.811 1.042 5.096 3.578.149 1.322-.088 4.482-.722 5.703-.554 1.07-1.872 2.136-3.346 2.55-.715.139-.894.148-1.612.077-1.488-.27-2.843-1.206-3.436-2.221-.678-1.158-1.033-4.288-.935-5.624zM567 313.556l-1.657 13.518c-.491 3.513-2.298 5.17-5.48 5.133l-10.573.062-1.356 12.072m-29.353-26.718h29.279-29.279zm-3.277-38.344c-.021-.992.637-2.833.954-3.77.062-.187.328-.328.482-.438 2.848-2.018 1.214-6.149-2.155-5.65-.916-2.824-6.06-3.321-7.497-.727-3.213-1.136-5.604 2.603-3.193 5.131.128.136.363.327.39.523.131.98.427 2.913.215 3.882-.379 1.741 10.845 2.837 10.804 1.049zm11.402 13.237c.28-.544.437-.992.501-1.37.311-1.837-1.54-2.002-1.54-3.623 0-1.954 2.69-1.79 1.04-4.993m3.572 9.986c.282-.544.437-.992.502-1.37.31-1.837-1.54-2.002-1.54-3.623 0-1.954 2.688-1.79 1.038-4.993m-7.56 12.462c.498 2.032 2.005 3.692 3.995 4.479h3.055c1.99-.787 3.498-2.447 3.995-4.479H522.72zm-8.476 49.594l.26-45.826-.26 45.826zm-9.318 0l3.155-26.253.22-.018.753 26.325-4.128-.054zm-4.207-24.759l-.71 24.73.71-24.73zm13.627-12.633a485.36 485.36 0 004.397-.595l8.058-1.158c1.119-.004 3.113-2.938 1.896-3.307l-9.649.005-3.09-9.046c-.37-1.14-1.928-2.005-3.32-2.45-1.623-.521-6.443-1.253-7.929-1.244-1.713.007-3.605.657-4.638 1.957-2.762 3.473-2.509 10.127-3.07 14.648.237 4.397.377 7.896.592 12.297.028.46.297.803.696 1.054.32.203 1.357.405 1.856.4.528.033 1.175-.466 1.187-1.219l.047-3.347-.063-9.007 1.31-8.135m2.052-19.553c-.254 1.336-.236 4.595.333 5.915.625 1.45 2.284 2.782 3.883 3.131 2.21.489 4.214-.17 5.157-2.4.62-1.462 1.048-4.208 1.045-5.386m-219.934-40.2v-8.059h31.113m32.956 0h34.61v8.06m-23.506 29.915l-8.907-29.915 8.907 29.915zm25.832 0l-18.725-29.915 18.725 29.915zm-51.665.106v-30.021 30.021zm-25.834-.106l8.906-29.915-8.906 29.915zm-25.833 0l18.725-29.915-18.725 29.915zm129.166.106c0 6.801-5.785 12.315-12.916 12.315-7.133 0-12.918-5.514-12.918-12.315H422zm-25.834 0c0 6.801-5.783 12.315-12.915 12.315-7.134 0-12.917-5.514-12.917-12.315h25.832zm-25.832 0c0 6.801-5.785 12.315-12.917 12.315-7.133 0-12.916-5.514-12.916-12.315h25.833zm-25.833 0c0 6.801-5.785 12.315-12.916 12.315-7.134 0-12.918-5.514-12.918-12.315h25.834zm-25.834 0c0 6.801-5.783 12.315-12.916 12.315-7.134 0-12.917-5.514-12.917-12.315h25.833zm75.174-30.021h-98.68L267 269.47v.106h155v-.106l-28.16-29.915zm-101.007 30.021c0 6.801-5.784 12.315-12.917 12.315-7.132 0-12.917-5.514-12.917-12.315h25.834zm-16.509 11.512V344v-62.912zM412.673 344v-62.912V344zm-93.675-71.047V345v-72.047zM370 273v71-71zm-39.92-62.704h25.12v19.003c0 2.212-1.852 4.058-4.068 4.058H334.15c-2.218 0-4.07-1.827-4.07-4.058v-19.003zm25.12 3.272h9.785c.744 0 1.354.625 1.354 1.351v6.589c0 .725-.627 1.355-1.354 1.355h-9.784v-9.295zM412.5 319.5l-42.41.218 42.41-.218zm-94 0h-42 42zm29.801-113.945c-.345-.913-.558-1.717-.668-2.43-.79-5.177 3.914-6.57 3.914-11.13 0-5.503-6.836-5.976-2.641-14.995m-10.914 28.555c-.345-.913-.556-1.717-.664-2.43-.792-5.177 3.911-6.57 3.911-11.13 0-5.503-6.83-5.976-2.64-14.995m-56.67 162.496v-13.622h29.933v13.622h-29.934zm94.902 0v-13.622h29.933v13.622h-29.933zm-32.33-57.072v57.174-57.174zm-5.953 21.85v12.722-12.722zm11.907 0v12.722-12.722z"/><path fill="#09A8BD" d="M1086 296c0 12.15 9.85 22 22 22s22-9.85 22-22-9.85-22-22-22-22 9.85-22 22"/><path stroke="#615F7D" stroke-width=".8" d="M1109 296v48.503"/><path fill="#09A8BD" d="M1030 304c0 9.941 8.059 18 18 18s18-8.059 18-18-8.059-18-18-18-18 8.059-18 18"/><path stroke="#615F7D" stroke-width=".8" d="M1048 305v39.503"/><path fill="#09A8BD" d="M1053 289c0 13.807 11.193 25 25 25s25-11.193 25-25-11.193-25-25-25-25 11.193-25 25"/><path stroke="#615F7D" stroke-width=".8" d="M1078 290v54.502"/><path fill="#09A8BD" d="M99 296c0 12.15 9.85 22 22 22s22-9.85 22-22-9.85-22-22-22-22 9.85-22 22"/><path stroke="#615F7D" stroke-width=".8" d="M122 296v48.503"/><path fill="#09A8BD" d="M43 304c0 9.941 8.059 18 18 18s18-8.059 18-18-8.059-18-18-18-18 8.059-18 18"/><path stroke="#615F7D" stroke-width=".8" d="M61 306v38.503"/><path fill="#09A8BD" d="M66 289c0 13.807 11.193 25 25 25s25-11.193 25-25-11.193-25-25-25-25 11.193-25 25"/><path stroke="#615F7D" stroke-width=".8" d="M91 290v54.502"/><path stroke="#615F7D" d="M343 153v-47h137M702 184v-78H563M1061.88 67.86h10.973-10.974zM955.397 33h-20.957 20.957zm53.644 12.02h-28.974 28.974zm45.488 22.84h-25.113 25.113zM1089 96.924h-55.76H1089zM924.756 55.056h-33.58 33.58zm-61.333 31.472H848h15.423zm34.075 0h-25.195 25.195zm-5.858 28.811h-32.467 32.467zm74.299-47.06c24.307 0 44.002 19.64 44.002 43.863 0 24.217-19.695 43.858-44.002 43.858-24.296 0-43.996-19.641-43.996-43.858 0-24.222 19.7-43.863 43.996-43.863zM60 136.615S77.704 118.178 78.699 142c.398-15.95 15.119-21.543 18.301-9.528"/><path stroke="#615F7D" stroke-width=".8" d="M1108 210.624s14.355-14.979 15.161 4.376c.323-12.959 12.259-17.503 14.839-7.742"/><path stroke="#615F7D" d="M123 141.11s13.263-13.616 14.105 3.89c.21-11.887 11.368-16.21 13.895-7.132"/><path stroke="#615F7D" stroke-width=".8" d="M1159 214.758s10.42-11.346 11.083 3.242c.165-9.906 8.932-13.508 10.917-5.943"/><path stroke="#6E6C89" stroke-linecap="round" stroke-linejoin="round" d="M510.135 87.403l-2.574-2.16m-3.386 5.865l3.159 1.15m-.973 5.52H503m31.862-10.375l2.576-2.162m.226 7.016l3.16-1.15m-2.186 6.669H542m-17.483 20.845h-6.724m9.414-5.38c0-2.017 1.345-2.69 1.345-2.69 4.707-3.361 6.724-7.383 6.724-12.775 0-7.056-5.72-12.776-12.776-12.776s-12.776 5.72-12.776 12.776c0 5.392 2.017 9.414 6.724 12.776 0 0 1.345.672 1.345 2.69h6.724m0 8.068v1.345c0 .743-.602 1.345-1.345 1.345h-1.344a1.345 1.345 0 01-1.345-1.345v-1.345h6.724c.77 0 1.345-.602 1.345-1.344 0-.743-.603-1.345-1.345-1.345a1.345 1.345 0 000-2.69 1.345 1.345 0 000-2.69m-9.414 8.07a1.345 1.345 0 010-2.69 1.345 1.345 0 010-2.69 1.345 1.345 0 010-2.69"/><path stroke="#6E6C89" d="M958 319h-6 6zm-106 9c2.76 0 5 2.235 5 4.998a5 5 0 11-5-4.998zm88 0c2.76 0 5 2.235 5 4.998a5 5 0 11-5-4.998zm-30-43v41-41zm40 18h-33v-14h17.923L950 303zm-9.999 19c6.076 0 10.999 4.92 10.999 10.999 0 6.076-4.923 11.001-10.999 11.001-6.078 0-11.001-4.925-11.001-11.001 0-6.078 4.923-10.999 11.001-10.999zm-88 0c6.074 0 10.999 4.92 10.999 10.999 0 6.076-4.925 11.001-10.999 11.001-6.078 0-11.001-4.925-11.001-11.001 0-6.078 4.923-10.999 11.001-10.999zM862 335h67-67zm88.943 0l9.057-1.549v-7.086l-2.302-1.027v-16.562c0-1.414-.641-2.697-1.972-3.34l-5.571-2.373-19.5-18.042-20.393-.114-.013-14.907h-80.804v56.88H827v8.112l14.088.002"/><path stroke="#605F7D" d="M254.194 62c0-6.019 8.056-11 17.903-11S290 55.877 290 62h-74"/><path stroke="#605F7D" d="M237 62c0-2.766 3.623-5 8-5s8 2.234 8 5"/><g stroke="#605F7D"><path d="M734 20c0-4.426 4.755-8 10.5-8s10.5 3.574 10.5 8"/><path d="M756.58 19c0-9.85 10.67-18 23.71-18C793.33 1 804 8.981 804 19h-98"/></g></g></svg>